<?xml version="1.0" standalone="no"?>
<!DOCTYPE svg PUBLIC "-//W3C//DTD SVG 20010904//EN"
 "http://www.w3.org/TR/2001/REC-SVG-20010904/DTD/svg10.dtd">
<svg version="1.0" xmlns="http://www.w3.org/2000/svg"
 width="512.000000pt" height="512.000000pt" viewBox="0 0 512.000000 512.000000"
 preserveAspectRatio="xMidYMid meet">

<g transform="translate(0.000000,512.000000) scale(0.100000,-0.100000)"
fill="#000000" stroke="none">
<path d="M2480 4070 c-93 -11 -144 -26 -235 -70 -150 -73 -250 -173 -325 -325
-56 -113 -74 -190 -74 -315 1 -278 151 -518 399 -641 113 -55 190 -73 315 -73
280 1 515 148 640 399 51 103 72 196 72 315 1 425 -370 758 -792 710z"/>
<path d="M2400 989 l0 -775 23 -44 c55 -109 209 -114 272 -8 18 29 20 54 23
210 4 177 4 177 -22 211 -40 52 -57 104 -57 172 0 70 15 115 54 161 l27 32 0
408 0 408 -27 -26 c-41 -38 -87 -58 -133 -58 -46 0 -92 20 -132 58 l-28 26 0
-775z"/>
</g>
</svg>
